<svg width="100%" height="100%">
  <defs>
    <pattern id="polka-dots" x="0" y="0" width="100" height="100" patternUnits="userSpaceOnUse">
      <svg xmlns="http://www.w3.org/2000/svg" fill="none" viewBox="0 0 24 24" stroke-width="1.5"
        stroke="currentColor" x="38" y="38" width="25" height="25">
        <path stroke-linecap="round" stroke-linejoin="round"
          d="M12 6.042A8.967 8.967 0 0 0 6 3.75c-1.052 0-2.062.18-3 .512v14.25A8.987 8.987 0 0 1 6 18c2.305 0 4.408.867 6 2.292m0-14.25a8.966 8.966 0 0 1 6-2.292c1.052 0 2.062.18 3 .512v14.25A8.987 8.987 0 0 0 18 18a8.967 8.967 0 0 0-6 2.292m0-14.25v14.25" />
      </svg>
    </pattern>
  </defs>

  <rect x="0" y="0" width="100%" height="100%" fill="url(#polka-dots)"></rect>
</svg>
